<svg t="1671019201431" class="icon" viewBox="0 0 1024 1024" version="1.1" xmlns="http://www.w3.org/2000/svg" p-id="31813" width="200" height="200"><path d="M567.466667 785.066667h-213.333334v-183.466667h213.333334c51.2 0 89.6 42.666667 89.6 89.6 0 55.466667-38.4 93.866667-89.6 93.866667m-213.333334-546.133334h183.466667c51.2 0 89.6 42.666667 89.6 89.6 0 51.2-42.666667 89.6-89.6 89.6H354.133333m341.333334 81.066667c59.733333-38.4 93.866667-102.4 102.4-170.666667 0-132.266667-102.4-243.2-234.666667-243.2H170.666667v853.333334h430.933333c128-4.266667 230.4-106.666667 226.133333-234.666667-4.266667-89.6-55.466667-166.4-132.266666-204.8z" p-id="31814"></path></svg>