<svg t="1671209028817" class="icon" viewBox="0 0 1088 1024" version="1.1" xmlns="http://www.w3.org/2000/svg" p-id="8642" width="200" height="200"><path d="M1073.728 544q0 17.728-17.728 37.728l-192 226.272q-24.576 29.152-68.864 49.44t-82.016 20.288l-621.728 0q-19.424 0-34.56-7.424t-15.136-24.576q0-17.728 17.728-37.728l192-226.272q24.576-29.152 68.864-49.44t82.016-20.288l621.728 0q19.424 0 34.56 7.424t15.136 24.576zM877.728 347.424l0 91.424-475.424 0q-53.728 0-112.576 27.136t-93.728 68.288l-195.424 229.728q0-2.272-0.288-7.136t-0.288-7.136l0-548.576q0-52.576 37.728-90.272t90.272-37.728l182.848 0q52.576 0 90.272 37.728t37.728 90.272l0 18.272 310.848 0q52.576 0 90.272 37.728t37.728 90.272z" p-id="8643"></path></svg>